<svg xmlns="http://www.w3.org/2000/svg" xmlns:xlink="http://www.w3.org/1999/xlink" width="300" zoomAndPan="magnify" viewBox="0 0 224.87999 74.999997" height="100" preserveAspectRatio="xMidYMid meet" version="1.0"><defs><g/><clipPath id="e9ee34525e"><path d="M 0 5.164062 L 36.730469 5.164062 L 36.730469 50 L 0 50 Z M 0 5.164062 " clip-rule="nonzero"/></clipPath><clipPath id="d50bd9cf81"><path d="M 9 50 L 27 50 L 27 67.382812 L 9 67.382812 Z M 9 50 " clip-rule="nonzero"/></clipPath></defs><g clip-path="url(#e9ee34525e)"><path fill="#ffd200" d="M 33.4375 19.730469 C 33.730469 19.921875 34.082031 20.03125 34.460938 20.03125 C 35.5 20.03125 36.347656 19.183594 36.347656 18.140625 C 36.347656 17.101562 35.5 16.253906 34.460938 16.253906 C 33.417969 16.253906 32.570312 17.101562 32.570312 18.140625 C 32.570312 18.339844 32.601562 18.527344 32.65625 18.703125 L 29.546875 21.535156 C 29.410156 21.65625 29.335938 21.828125 29.335938 22.007812 L 29.335938 24.769531 L 26.6875 21.339844 L 26.6875 18.027344 L 29.539062 15.40625 C 29.789062 15.527344 30.070312 15.597656 30.367188 15.597656 C 31.410156 15.597656 32.257812 14.75 32.257812 13.710938 C 32.257812 12.667969 31.410156 11.820312 30.367188 11.820312 C 29.328125 11.820312 28.480469 12.667969 28.480469 13.710938 C 28.480469 13.984375 28.539062 14.246094 28.644531 14.480469 L 25.609375 17.269531 C 25.476562 17.394531 25.402344 17.566406 25.402344 17.746094 L 25.402344 20.566406 C 25.332031 20.589844 25.261719 20.628906 25.203125 20.675781 L 22.753906 22.566406 L 22.753906 13.828125 L 25.480469 11.171875 C 25.726562 11.292969 26.003906 11.359375 26.292969 11.359375 C 27.335938 11.359375 28.183594 10.511719 28.183594 9.46875 C 28.183594 8.425781 27.335938 7.578125 26.292969 7.578125 C 25.253906 7.578125 24.40625 8.425781 24.40625 9.46875 C 24.40625 9.75 24.46875 10.019531 24.578125 10.257812 L 21.660156 13.097656 C 21.539062 13.21875 21.46875 13.386719 21.46875 13.558594 L 21.46875 23.617188 C 21.40625 23.710938 21.367188 23.816406 21.355469 23.929688 C 21.332031 24.109375 21.371094 24.292969 21.46875 24.445312 L 21.46875 25.304688 C 20.769531 25.398438 20.089844 25.667969 19.496094 26.128906 L 18.820312 26.648438 L 18.820312 8.832031 C 19.546875 8.566406 20.066406 7.871094 20.066406 7.054688 C 20.066406 6.011719 19.21875 5.164062 18.175781 5.164062 C 17.136719 5.164062 16.289062 6.011719 16.289062 7.054688 C 16.289062 7.871094 16.808594 8.566406 17.535156 8.832031 L 17.535156 27.640625 L 17.296875 27.824219 L 17.28125 27.835938 C 17.261719 27.800781 17.242188 27.769531 17.21875 27.738281 L 17.015625 27.476562 C 16.734375 27.113281 16.378906 26.828125 15.972656 26.640625 L 16.230469 26.441406 C 16.566406 26.183594 16.628906 25.699219 16.367188 25.359375 L 14.886719 23.4375 L 14.886719 13.558594 C 14.886719 13.386719 14.816406 13.21875 14.691406 13.097656 L 11.777344 10.257812 C 11.886719 10.019531 11.949219 9.75 11.949219 9.46875 C 11.949219 8.425781 11.101562 7.578125 10.058594 7.578125 C 9.019531 7.578125 8.171875 8.425781 8.171875 9.46875 C 8.171875 10.511719 9.019531 11.359375 10.058594 11.359375 C 10.351562 11.359375 10.628906 11.292969 10.875 11.171875 L 13.601562 13.828125 L 13.601562 21.773438 C 13.476562 21.632812 13.304688 21.539062 13.113281 21.511719 C 12.910156 21.488281 12.707031 21.542969 12.542969 21.667969 L 10.953125 22.894531 L 10.953125 17.746094 C 10.953125 17.5625 10.878906 17.394531 10.746094 17.269531 L 7.710938 14.480469 C 7.816406 14.246094 7.875 13.984375 7.875 13.710938 C 7.875 12.667969 7.027344 11.820312 5.984375 11.820312 C 4.945312 11.820312 4.097656 12.667969 4.097656 13.710938 C 4.097656 14.75 4.945312 15.597656 5.984375 15.597656 C 6.285156 15.597656 6.566406 15.527344 6.816406 15.40625 L 9.667969 18.027344 L 9.667969 23.886719 L 7.019531 25.929688 L 7.019531 22.007812 C 7.019531 21.828125 6.941406 21.65625 6.808594 21.535156 L 3.699219 18.703125 C 3.753906 18.527344 3.785156 18.339844 3.785156 18.140625 C 3.785156 17.101562 2.9375 16.253906 1.894531 16.253906 C 0.851562 16.253906 0.00390625 17.101562 0.00390625 18.140625 C 0.00390625 19.183594 0.851562 20.03125 1.894531 20.03125 C 2.269531 20.03125 2.621094 19.921875 2.917969 19.730469 L 5.734375 22.292969 L 5.734375 26.921875 L 1.410156 30.261719 C 1.246094 30.382812 1.140625 30.570312 1.113281 30.773438 C 1.089844 30.976562 1.144531 31.179688 1.269531 31.34375 L 4.011719 34.894531 C 4.167969 35.097656 4.402344 35.199219 4.636719 35.195312 C 4.796875 35.191406 4.957031 35.140625 5.09375 35.035156 L 5.621094 34.628906 C 5.703125 35.066406 5.886719 35.484375 6.167969 35.847656 L 6.402344 36.15625 C 6.417969 36.171875 6.429688 36.1875 6.441406 36.203125 C 5.535156 36.960938 5.378906 38.316406 6.109375 39.261719 L 6.1875 39.359375 C 6.433594 39.679688 6.753906 39.921875 7.121094 40.066406 C 7.097656 40.164062 7.078125 40.261719 7.0625 40.359375 C 6.988281 40.949219 7.144531 41.53125 7.507812 42 L 7.585938 42.097656 C 7.886719 42.492188 8.300781 42.765625 8.769531 42.886719 C 8.703125 43.464844 8.863281 44.039062 9.21875 44.5 L 9.292969 44.597656 C 9.742188 45.175781 10.417969 45.472656 11.097656 45.460938 C 11.136719 45.460938 11.171875 45.457031 11.210938 45.457031 C 11.269531 45.804688 11.414062 46.136719 11.640625 46.429688 L 11.714844 46.527344 C 12.164062 47.105469 12.839844 47.402344 13.519531 47.390625 C 13.953125 47.382812 14.382812 47.25 14.757812 46.980469 L 16.210938 48.859375 C 16.617188 49.386719 17.25 49.65625 17.902344 49.644531 C 18.390625 49.632812 18.890625 49.46875 19.316406 49.136719 C 19.660156 48.871094 19.914062 48.535156 20.070312 48.167969 C 20.1875 48.195312 20.3125 48.214844 20.441406 48.226562 C 20.507812 48.230469 20.574219 48.230469 20.640625 48.230469 C 21.144531 48.21875 21.640625 48.042969 22.058594 47.722656 C 22.394531 47.464844 22.652344 47.128906 22.8125 46.753906 C 22.941406 46.789062 23.078125 46.8125 23.21875 46.820312 C 23.285156 46.824219 23.351562 46.828125 23.417969 46.824219 C 23.921875 46.816406 24.417969 46.640625 24.832031 46.320312 C 25.660156 45.683594 25.960938 44.628906 25.640625 43.761719 C 25.902344 43.679688 26.15625 43.546875 26.390625 43.367188 C 27.390625 42.597656 27.621094 41.21875 26.90625 40.292969 L 25.609375 38.613281 L 28.367188 36.484375 C 28.90625 36.066406 29.300781 35.511719 29.515625 34.882812 L 30.101562 35.636719 C 30.253906 35.839844 30.492188 35.941406 30.726562 35.9375 C 30.886719 35.933594 31.046875 35.882812 31.183594 35.777344 L 34.734375 33.035156 C 34.898438 32.910156 35.003906 32.726562 35.03125 32.523438 C 35.054688 32.320312 35 32.113281 34.875 31.953125 L 30.621094 26.4375 L 30.621094 22.292969 Z M 34.460938 17.539062 C 34.792969 17.539062 35.0625 17.808594 35.0625 18.140625 C 35.0625 18.476562 34.792969 18.746094 34.460938 18.746094 C 34.125 18.746094 33.855469 18.476562 33.855469 18.140625 C 33.855469 17.808594 34.125 17.539062 34.460938 17.539062 Z M 30.367188 13.105469 C 30.703125 13.105469 30.972656 13.375 30.972656 13.710938 C 30.972656 14.042969 30.703125 14.3125 30.367188 14.3125 C 30.035156 14.3125 29.765625 14.042969 29.765625 13.710938 C 29.765625 13.375 30.035156 13.105469 30.367188 13.105469 Z M 26.292969 8.863281 C 26.628906 8.863281 26.898438 9.136719 26.898438 9.46875 C 26.898438 9.800781 26.628906 10.074219 26.292969 10.074219 C 25.960938 10.074219 25.691406 9.800781 25.691406 9.46875 C 25.691406 9.136719 25.960938 8.863281 26.292969 8.863281 Z M 9.457031 9.46875 C 9.457031 9.136719 9.726562 8.863281 10.058594 8.863281 C 10.394531 8.863281 10.664062 9.136719 10.664062 9.46875 C 10.664062 9.800781 10.394531 10.074219 10.058594 10.074219 C 9.726562 10.074219 9.457031 9.800781 9.457031 9.46875 Z M 5.984375 14.3125 C 5.652344 14.3125 5.378906 14.042969 5.378906 13.710938 C 5.378906 13.375 5.652344 13.105469 5.984375 13.105469 C 6.316406 13.105469 6.589844 13.375 6.589844 13.710938 C 6.589844 14.042969 6.316406 14.3125 5.984375 14.3125 Z M 1.894531 18.746094 C 1.5625 18.746094 1.289062 18.476562 1.289062 18.140625 C 1.289062 17.808594 1.5625 17.539062 1.894531 17.539062 C 2.226562 17.539062 2.5 17.808594 2.5 18.140625 C 2.5 18.476562 2.226562 18.746094 1.894531 18.746094 Z M 18.175781 6.449219 C 18.511719 6.449219 18.78125 6.71875 18.78125 7.054688 C 18.78125 7.386719 18.511719 7.660156 18.175781 7.660156 C 17.84375 7.660156 17.574219 7.386719 17.574219 7.054688 C 17.574219 6.71875 17.84375 6.449219 18.175781 6.449219 Z M 4.761719 33.34375 L 2.960938 31.011719 L 12.875 23.359375 L 14.675781 25.691406 Z M 7.855469 38.675781 C 7.675781 38.652344 7.519531 38.5625 7.40625 38.417969 L 7.332031 38.316406 C 7.101562 38.023438 7.15625 37.597656 7.453125 37.367188 L 10.074219 35.347656 C 10.191406 35.253906 10.332031 35.210938 10.472656 35.207031 C 10.679688 35.203125 10.886719 35.292969 11.023438 35.46875 L 11.097656 35.570312 C 11.210938 35.710938 11.257812 35.890625 11.234375 36.070312 C 11.210938 36.25 11.121094 36.410156 10.976562 36.519531 L 10.527344 36.863281 L 8.355469 38.539062 C 8.214844 38.652344 8.035156 38.699219 7.855469 38.675781 Z M 9.257812 41.414062 C 9.078125 41.390625 8.917969 41.300781 8.808594 41.15625 L 8.730469 41.058594 C 8.621094 40.914062 8.570312 40.734375 8.59375 40.558594 C 8.617188 40.378906 8.710938 40.21875 8.851562 40.105469 L 10.433594 38.886719 L 11.472656 38.085938 C 11.589844 37.996094 11.730469 37.949219 11.871094 37.945312 C 12.078125 37.941406 12.285156 38.03125 12.421875 38.207031 L 12.496094 38.308594 C 12.609375 38.453125 12.65625 38.628906 12.632812 38.808594 C 12.609375 38.988281 12.519531 39.148438 12.375 39.257812 L 10.921875 40.378906 L 9.753906 41.277344 C 9.613281 41.390625 9.433594 41.4375 9.257812 41.414062 Z M 11.832031 43.496094 L 11.464844 43.777344 C 11.171875 44.007812 10.742188 43.953125 10.515625 43.65625 L 10.4375 43.554688 C 10.328125 43.414062 10.28125 43.234375 10.304688 43.054688 C 10.328125 42.875 10.417969 42.71875 10.5625 42.605469 L 13.179688 40.585938 C 13.476562 40.359375 13.902344 40.414062 14.128906 40.707031 L 14.207031 40.808594 C 14.402344 41.0625 14.390625 41.414062 14.191406 41.652344 L 12.039062 43.3125 C 11.96875 43.371094 11.898438 43.429688 11.832031 43.496094 Z M 14.425781 45.289062 L 13.886719 45.707031 C 13.589844 45.933594 13.164062 45.878906 12.9375 45.585938 L 12.859375 45.484375 C 12.75 45.339844 12.703125 45.164062 12.726562 44.984375 C 12.742188 44.855469 12.792969 44.738281 12.875 44.640625 L 15.027344 42.980469 C 15.101562 42.921875 15.167969 42.863281 15.234375 42.800781 L 15.601562 42.515625 C 15.71875 42.425781 15.859375 42.375 16 42.375 C 16.035156 42.371094 16.070312 42.375 16.101562 42.378906 C 16.28125 42.402344 16.441406 42.492188 16.550781 42.636719 L 16.628906 42.734375 C 16.855469 43.03125 16.800781 43.457031 16.507812 43.6875 Z M 18.375 47.914062 C 18.054688 48.164062 17.621094 48.164062 17.429688 47.914062 L 15.980469 46.039062 L 17.160156 45.128906 L 18.621094 47.015625 C 18.796875 47.265625 18.6875 47.671875 18.375 47.914062 Z M 25.683594 41.234375 C 25.875 41.480469 25.765625 41.898438 25.445312 42.144531 C 25.125 42.390625 24.695312 42.390625 24.503906 42.144531 L 21.757812 38.585938 C 21.726562 38.542969 21.691406 38.503906 21.652344 38.472656 C 21.457031 38.304688 21.191406 38.246094 20.949219 38.308594 C 20.855469 38.335938 20.761719 38.382812 20.675781 38.445312 C 20.609375 38.496094 20.554688 38.554688 20.511719 38.621094 C 20.355469 38.847656 20.332031 39.144531 20.453125 39.394531 C 20.476562 39.441406 20.503906 39.488281 20.535156 39.527344 L 23.28125 43.089844 C 23.285156 43.089844 23.285156 43.089844 23.285156 43.089844 L 24.128906 44.1875 C 24.320312 44.433594 24.210938 44.851562 23.890625 45.097656 C 23.722656 45.226562 23.515625 45.292969 23.324219 45.28125 C 23.234375 45.273438 23.0625 45.242188 22.949219 45.097656 C 22.949219 45.09375 22.945312 45.09375 22.945312 45.089844 L 21.644531 43.441406 L 19.675781 40.890625 C 19.417969 40.554688 18.929688 40.492188 18.59375 40.753906 C 18.589844 40.753906 18.585938 40.757812 18.582031 40.761719 C 18.574219 40.769531 18.566406 40.773438 18.558594 40.777344 C 18.226562 41.042969 18.167969 41.527344 18.433594 41.863281 L 20.429688 44.390625 L 21.351562 45.589844 C 21.464844 45.734375 21.453125 45.910156 21.433594 46 C 21.398438 46.1875 21.28125 46.371094 21.113281 46.5 C 20.945312 46.628906 20.738281 46.699219 20.546875 46.683594 C 20.457031 46.679688 20.285156 46.644531 20.171875 46.5 L 19.855469 46.089844 C 19.847656 46.078125 19.839844 46.070312 19.832031 46.0625 L 18.175781 43.917969 C 18.429688 43.222656 18.332031 42.417969 17.851562 41.792969 L 17.773438 41.695312 C 17.410156 41.222656 16.886719 40.921875 16.300781 40.847656 C 16.152344 40.828125 16.003906 40.824219 15.855469 40.835938 C 15.796875 40.492188 15.65625 40.160156 15.429688 39.863281 L 15.351562 39.765625 C 15.042969 39.363281 14.621094 39.097656 14.167969 38.976562 C 14.234375 38.398438 14.074219 37.828125 13.71875 37.367188 L 13.644531 37.265625 C 13.390625 36.9375 13.066406 36.703125 12.707031 36.558594 C 12.730469 36.464844 12.75 36.367188 12.765625 36.265625 C 12.839844 35.679688 12.683594 35.097656 12.320312 34.625 L 12.242188 34.527344 C 11.496094 33.558594 10.097656 33.378906 9.128906 34.125 L 7.660156 35.261719 C 7.648438 35.242188 7.636719 35.226562 7.625 35.210938 L 7.390625 34.90625 C 7.175781 34.632812 7.085938 34.289062 7.128906 33.945312 C 7.171875 33.601562 7.347656 33.292969 7.625 33.082031 L 13.96875 28.183594 C 14.246094 27.972656 14.585938 27.882812 14.929688 27.925781 C 15.273438 27.96875 15.582031 28.144531 15.792969 28.421875 L 15.996094 28.679688 C 16.019531 28.710938 16.042969 28.742188 16.074219 28.769531 L 13.808594 30.515625 C 13.304688 30.902344 12.980469 31.464844 12.902344 32.09375 C 12.820312 32.726562 12.988281 33.351562 13.378906 33.855469 C 13.855469 34.476562 14.582031 34.792969 15.3125 34.78125 C 15.804688 34.769531 16.296875 34.609375 16.714844 34.285156 L 18.972656 32.542969 Z M 28.144531 34.007812 C 28.078125 34.507812 27.824219 34.953125 27.421875 35.261719 L 24.667969 37.390625 L 20.195312 31.601562 L 20.203125 31.59375 C 20.542969 31.335938 20.605469 30.851562 20.34375 30.511719 C 20.085938 30.175781 19.597656 30.113281 19.261719 30.375 L 15.773438 33.0625 C 15.597656 33.199219 15.378906 33.261719 15.15625 33.230469 C 14.933594 33.203125 14.738281 33.089844 14.601562 32.910156 C 14.464844 32.734375 14.402344 32.515625 14.433594 32.292969 C 14.460938 32.070312 14.574219 31.875 14.75 31.738281 L 18.238281 29.046875 L 18.6875 28.699219 L 18.820312 28.699219 L 18.820312 28.597656 L 20.4375 27.351562 C 21.566406 26.476562 23.195312 26.6875 24.066406 27.816406 L 25.382812 29.523438 L 27.765625 32.609375 C 28.074219 33.011719 28.207031 33.507812 28.144531 34.007812 Z M 30.851562 34.082031 L 25.519531 27.171875 L 25.289062 26.875 L 23.203125 24.167969 L 25.402344 22.472656 L 25.402344 22.726562 L 25.808594 22.726562 L 33.183594 32.285156 Z M 30.851562 34.082031 " fill-opacity="1" fill-rule="nonzero"/></g><path fill="#ffd200" d="M 18.835938 54.996094 C 17.78125 54.804688 16.714844 55.039062 15.832031 55.652344 C 14.953125 56.265625 14.367188 57.183594 14.175781 58.242188 C 13.988281 59.296875 14.222656 60.363281 14.835938 61.242188 C 15.449219 62.121094 16.367188 62.710938 17.421875 62.898438 C 17.660156 62.941406 17.902344 62.960938 18.136719 62.960938 C 18.949219 62.960938 19.742188 62.714844 20.425781 62.238281 C 21.304688 61.625 21.894531 60.707031 22.082031 59.652344 C 22.269531 58.597656 22.035156 57.53125 21.421875 56.652344 C 20.808594 55.773438 19.890625 55.183594 18.835938 54.996094 Z M 20.816406 59.425781 C 20.6875 60.144531 20.289062 60.769531 19.691406 61.1875 C 19.09375 61.601562 18.367188 61.761719 17.648438 61.632812 C 16.933594 61.503906 16.308594 61.105469 15.890625 60.507812 C 15.472656 59.910156 15.3125 59.183594 15.441406 58.46875 C 15.570312 57.75 15.96875 57.125 16.570312 56.707031 C 17.03125 56.386719 17.570312 56.214844 18.125 56.214844 C 18.285156 56.214844 18.445312 56.230469 18.609375 56.261719 C 19.328125 56.386719 19.953125 56.789062 20.367188 57.386719 C 20.785156 57.984375 20.945312 58.707031 20.816406 59.425781 Z M 20.816406 59.425781 " fill-opacity="1" fill-rule="nonzero"/><g clip-path="url(#d50bd9cf81)"><path fill="#ffd200" d="M 26.101562 57.710938 L 25.050781 57.398438 L 24.882812 56.773438 L 25.640625 55.976562 C 25.839844 55.769531 25.875 55.449219 25.722656 55.203125 L 24.921875 53.878906 C 24.769531 53.632812 24.472656 53.515625 24.195312 53.59375 L 23.140625 53.898438 L 22.664062 53.464844 L 22.867188 52.386719 C 22.925781 52.101562 22.78125 51.816406 22.519531 51.6875 L 21.128906 51.007812 C 20.871094 50.882812 20.554688 50.945312 20.363281 51.164062 L 19.640625 51.988281 L 19.003906 51.878906 L 18.597656 50.863281 C 18.488281 50.59375 18.214844 50.429688 17.925781 50.460938 L 16.390625 50.644531 C 16.101562 50.675781 15.871094 50.898438 15.828125 51.1875 L 15.667969 52.273438 L 15.070312 52.523438 L 14.179688 51.890625 C 13.941406 51.722656 13.621094 51.734375 13.398438 51.917969 L 12.203125 52.898438 C 11.980469 53.082031 11.90625 53.394531 12.023438 53.660156 L 12.476562 54.660156 L 12.113281 55.195312 L 11.015625 55.144531 C 10.726562 55.128906 10.464844 55.3125 10.375 55.585938 L 9.902344 57.058594 C 9.8125 57.335938 9.917969 57.636719 10.164062 57.796875 L 11.082031 58.394531 L 11.066406 59.039062 L 10.117188 59.589844 C 9.863281 59.734375 9.742188 60.03125 9.816406 60.308594 L 10.214844 61.804688 C 10.289062 62.085938 10.542969 62.28125 10.832031 62.28125 L 11.929688 62.289062 L 12.265625 62.839844 L 11.761719 63.816406 C 11.628906 64.074219 11.6875 64.390625 11.898438 64.585938 L 13.042969 65.628906 C 13.257812 65.824219 13.574219 65.851562 13.820312 65.695312 L 14.746094 65.105469 L 15.328125 65.390625 L 15.433594 66.480469 C 15.460938 66.769531 15.675781 67.003906 15.964844 67.054688 L 17.488281 67.3125 C 17.523438 67.320312 17.5625 67.324219 17.597656 67.324219 C 17.84375 67.324219 18.074219 67.179688 18.179688 66.949219 L 18.640625 65.953125 L 19.28125 65.878906 L 19.960938 66.742188 C 20.140625 66.96875 20.449219 67.046875 20.71875 66.933594 L 22.140625 66.328125 C 22.40625 66.214844 22.566406 65.9375 22.527344 65.648438 L 22.375 64.5625 L 22.875 64.152344 L 23.910156 64.511719 C 24.183594 64.605469 24.488281 64.503906 24.652344 64.265625 L 25.523438 62.984375 C 25.683594 62.746094 25.667969 62.425781 25.476562 62.203125 L 24.761719 61.371094 L 24.960938 60.757812 L 26.027344 60.496094 C 26.308594 60.429688 26.511719 60.179688 26.519531 59.890625 L 26.558594 58.34375 C 26.566406 58.054688 26.378906 57.792969 26.101562 57.710938 Z M 25.246094 59.363281 L 24.308594 59.59375 C 24.09375 59.644531 23.917969 59.808594 23.847656 60.019531 L 23.429688 61.320312 C 23.363281 61.535156 23.410156 61.765625 23.554688 61.9375 L 24.183594 62.667969 L 23.867188 63.132812 L 22.953125 62.820312 C 22.742188 62.746094 22.507812 62.789062 22.335938 62.929688 L 21.28125 63.796875 C 21.109375 63.941406 21.023438 64.160156 21.050781 64.382812 L 21.183594 65.339844 L 20.667969 65.558594 L 20.070312 64.800781 C 19.929688 64.625 19.710938 64.535156 19.488281 64.558594 L 18.132812 64.71875 C 17.910156 64.746094 17.71875 64.886719 17.625 65.089844 L 17.21875 65.964844 L 16.664062 65.871094 L 16.570312 64.910156 C 16.550781 64.6875 16.414062 64.492188 16.214844 64.394531 L 14.988281 63.792969 C 14.785156 63.695312 14.546875 63.707031 14.359375 63.828125 L 13.546875 64.347656 L 13.128906 63.964844 L 13.570312 63.109375 C 13.671875 62.910156 13.664062 62.671875 13.550781 62.480469 L 12.839844 61.3125 C 12.726562 61.121094 12.519531 61.003906 12.292969 61.003906 L 11.328125 61 L 11.183594 60.453125 L 12.019531 59.972656 C 12.214844 59.859375 12.335938 59.65625 12.339844 59.433594 L 12.375 58.066406 C 12.382812 57.84375 12.269531 57.632812 12.082031 57.511719 L 11.273438 56.984375 L 11.449219 56.449219 L 12.410156 56.496094 C 12.632812 56.503906 12.847656 56.398438 12.972656 56.214844 L 13.742188 55.082031 C 13.867188 54.898438 13.886719 54.660156 13.796875 54.457031 L 13.398438 53.578125 L 13.832031 53.222656 L 14.621094 53.78125 C 14.800781 53.910156 15.039062 53.933594 15.242188 53.847656 L 16.5 53.3125 C 16.707031 53.226562 16.851562 53.035156 16.886719 52.816406 L 17.027344 51.863281 L 17.585938 51.796875 L 17.945312 52.691406 C 18.027344 52.898438 18.214844 53.046875 18.433594 53.085938 L 19.78125 53.316406 C 20 53.351562 20.226562 53.273438 20.371094 53.105469 L 21.007812 52.378906 L 21.515625 52.625 L 21.332031 53.574219 C 21.289062 53.792969 21.363281 54.019531 21.53125 54.167969 L 22.539062 55.089844 C 22.703125 55.242188 22.9375 55.296875 23.152344 55.234375 L 24.078125 54.964844 L 24.371094 55.449219 L 23.703125 56.144531 C 23.550781 56.308594 23.492188 56.539062 23.546875 56.753906 L 23.898438 58.074219 C 23.957031 58.289062 24.121094 58.460938 24.335938 58.523438 L 25.261719 58.800781 Z M 25.246094 59.363281 " fill-opacity="1" fill-rule="nonzero"/></g><g fill="#24285b" fill-opacity="1"><g transform="translate(44.046444, 29.413368)"><g><path d="M 3.121094 -1.890625 L 3.121094 -9.457031 L 1.082031 -9.457031 L 1.082031 0 L 6.753906 0 L 6.753906 -1.890625 Z M 3.121094 -1.890625 "/></g></g></g><g fill="#24285b" fill-opacity="1"><g transform="translate(53.960772, 29.413368)"><g><path d="M 8.023438 -3.660156 C 8.023438 -5.769531 6.484375 -7.496094 4.242188 -7.496094 C 2.082031 -7.496094 0.460938 -5.835938 0.460938 -3.648438 C 0.460938 -1.457031 2.09375 0.214844 4.242188 0.214844 C 5.945312 0.214844 7.335938 -0.796875 7.863281 -2.390625 L 5.792969 -2.390625 C 5.496094 -1.863281 4.929688 -1.539062 4.242188 -1.539062 C 3.28125 -1.539062 2.632812 -2.09375 2.457031 -3.09375 L 7.984375 -3.09375 C 8.011719 -3.28125 8.023438 -3.472656 8.023438 -3.660156 Z M 4.242188 -5.808594 C 5.132812 -5.808594 5.769531 -5.320312 6.050781 -4.429688 L 2.511719 -4.429688 C 2.742188 -5.296875 3.363281 -5.808594 4.242188 -5.808594 Z M 4.242188 -5.808594 "/></g></g></g><g fill="#24285b" fill-opacity="1"><g transform="translate(65.306575, 29.413368)"><g><path d="M 4.335938 0.214844 C 6.242188 0.214844 7.738281 -1.027344 8.078125 -2.863281 L 6.09375 -2.863281 C 5.753906 -2.082031 5.132812 -1.648438 4.335938 -1.648438 C 3.28125 -1.648438 2.457031 -2.527344 2.457031 -3.648438 C 2.457031 -4.78125 3.269531 -5.644531 4.335938 -5.644531 C 5.121094 -5.644531 5.78125 -5.214844 6.09375 -4.5 L 8.050781 -4.5 C 7.699219 -6.292969 6.242188 -7.496094 4.347656 -7.496094 C 2.132812 -7.496094 0.460938 -5.847656 0.460938 -3.660156 C 0.460938 -1.472656 2.132812 0.214844 4.335938 0.214844 Z M 4.335938 0.214844 "/></g></g></g><g fill="#24285b" fill-opacity="1"><g transform="translate(76.611866, 29.413368)"><g><path d="M 0.945312 0 L 2.917969 0 L 2.917969 -9.914062 L 0.945312 -9.914062 Z M 0.945312 0 "/></g></g></g><g fill="#24285b" fill-opacity="1"><g transform="translate(83.339124, 29.413368)"><g><path d="M 6.890625 -7.292969 L 6.6875 -6.605469 C 6.050781 -7.160156 5.226562 -7.496094 4.28125 -7.496094 C 2.09375 -7.496094 0.460938 -5.847656 0.460938 -3.648438 C 0.460938 -1.445312 2.09375 0.214844 4.28125 0.214844 C 5.214844 0.214844 6.023438 -0.109375 6.644531 -0.660156 L 6.820312 0 L 8.359375 0 L 8.359375 -7.292969 Z M 4.445312 -1.648438 C 3.296875 -1.648438 2.457031 -2.511719 2.457031 -3.648438 C 2.457031 -4.796875 3.296875 -5.644531 4.445312 -5.644531 C 5.59375 -5.644531 6.429688 -4.796875 6.429688 -3.648438 C 6.429688 -2.5 5.59375 -1.648438 4.445312 -1.648438 Z M 4.445312 -1.648438 "/></g></g></g><g fill="#24285b" fill-opacity="1"><g transform="translate(95.522213, 29.413368)"><g><path d="M 0.945312 -8.265625 L 2.902344 -8.265625 L 2.902344 -10.089844 L 0.945312 -10.089844 Z M 0.945312 0 L 2.917969 0 L 2.917969 -7.292969 L 0.945312 -7.292969 Z M 0.945312 0 "/></g></g></g><g fill="#24285b" fill-opacity="1"><g transform="translate(102.249471, 29.413368)"><g><path d="M 4.671875 -7.335938 C 3.726562 -7.335938 3.078125 -7.039062 2.554688 -6.390625 L 2.203125 -7.292969 L 0.945312 -7.292969 L 0.945312 0 L 2.917969 0 L 2.917969 -3.78125 C 2.917969 -4.972656 3.351562 -5.46875 4.457031 -5.46875 L 5.320312 -5.46875 L 5.320312 -7.335938 Z M 4.671875 -7.335938 "/></g></g></g><g fill="#24285b" fill-opacity="1"><g transform="translate(110.610771, 29.413368)"><g/></g></g><g fill="#24285b" fill-opacity="1"><g transform="translate(116.703324, 29.413368)"><g><path d="M 6.726562 -7.550781 L 6.726562 -9.457031 L 1.082031 -9.457031 L 1.082031 0 L 3.121094 0 L 3.121094 -3.621094 L 6.375 -3.621094 L 6.375 -5.46875 L 3.121094 -5.46875 L 3.121094 -7.550781 Z M 6.726562 -7.550781 "/></g></g></g><g fill="#24285b" fill-opacity="1"><g transform="translate(126.793202, 29.413368)"><g><path d="M 4.402344 0.214844 C 6.660156 0.214844 8.347656 -1.445312 8.347656 -3.648438 C 8.347656 -5.847656 6.660156 -7.496094 4.402344 -7.496094 C 2.148438 -7.496094 0.460938 -5.847656 0.460938 -3.648438 C 0.460938 -1.445312 2.148438 0.214844 4.402344 0.214844 Z M 4.402344 -1.648438 C 3.269531 -1.648438 2.457031 -2.457031 2.457031 -3.648438 C 2.457031 -4.824219 3.269531 -5.644531 4.402344 -5.644531 C 5.539062 -5.644531 6.347656 -4.824219 6.347656 -3.648438 C 6.347656 -2.457031 5.539062 -1.648438 4.402344 -1.648438 Z M 4.402344 -1.648438 "/></g></g></g><g fill="#24285b" fill-opacity="1"><g transform="translate(138.476619, 29.413368)"><g><path d="M 4.269531 0.214844 C 6.335938 0.214844 7.699219 -1.109375 7.699219 -3.078125 L 7.699219 -7.292969 L 5.726562 -7.292969 L 5.726562 -3.296875 C 5.726562 -2.269531 5.1875 -1.648438 4.269531 -1.648438 C 3.363281 -1.648438 2.808594 -2.253906 2.808594 -3.296875 L 2.808594 -7.292969 L 0.835938 -7.292969 L 0.835938 -3.078125 C 0.835938 -1.109375 2.214844 0.214844 4.269531 0.214844 Z M 4.269531 0.214844 "/></g></g></g><g fill="#24285b" fill-opacity="1"><g transform="translate(149.889941, 29.413368)"><g><path d="M 5.09375 -7.457031 C 4.105469 -7.457031 3.226562 -7.039062 2.675781 -6.390625 L 2.296875 -7.292969 L 0.945312 -7.292969 L 0.945312 0 L 2.917969 0 L 2.917969 -3.824219 C 2.917969 -4.996094 3.539062 -5.726562 4.550781 -5.726562 C 5.402344 -5.726562 5.820312 -5.199219 5.820312 -4.09375 L 5.820312 0 L 7.792969 0 L 7.792969 -4.417969 C 7.792969 -6.269531 6.753906 -7.457031 5.09375 -7.457031 Z M 5.09375 -7.457031 "/></g></g></g><g fill="#24285b" fill-opacity="1"><g transform="translate(161.411311, 29.413368)"><g><path d="M 6.292969 -9.914062 L 6.292969 -6.890625 C 5.726562 -7.28125 5.050781 -7.496094 4.296875 -7.496094 C 2.082031 -7.496094 0.460938 -5.847656 0.460938 -3.632812 C 0.460938 -1.433594 2.082031 0.230469 4.296875 0.230469 C 5.1875 0.230469 5.96875 -0.0820312 6.578125 -0.59375 L 6.808594 0.0117188 L 8.265625 0.0117188 L 8.265625 -9.914062 Z M 4.457031 -1.632812 C 3.308594 -1.632812 2.472656 -2.5 2.472656 -3.632812 C 2.472656 -4.78125 3.308594 -5.632812 4.457031 -5.632812 C 5.605469 -5.632812 6.441406 -4.78125 6.441406 -3.632812 C 6.441406 -2.5 5.605469 -1.632812 4.457031 -1.632812 Z M 4.457031 -1.632812 "/></g></g></g><g fill="#24285b" fill-opacity="1"><g transform="translate(173.499868, 29.413368)"><g><path d="M 6.890625 -7.292969 L 6.6875 -6.605469 C 6.050781 -7.160156 5.226562 -7.496094 4.28125 -7.496094 C 2.09375 -7.496094 0.460938 -5.847656 0.460938 -3.648438 C 0.460938 -1.445312 2.09375 0.214844 4.28125 0.214844 C 5.214844 0.214844 6.023438 -0.109375 6.644531 -0.660156 L 6.820312 0 L 8.359375 0 L 8.359375 -7.292969 Z M 4.445312 -1.648438 C 3.296875 -1.648438 2.457031 -2.511719 2.457031 -3.648438 C 2.457031 -4.796875 3.296875 -5.644531 4.445312 -5.644531 C 5.59375 -5.644531 6.429688 -4.796875 6.429688 -3.648438 C 6.429688 -2.5 5.59375 -1.648438 4.445312 -1.648438 Z M 4.445312 -1.648438 "/></g></g></g><g fill="#24285b" fill-opacity="1"><g transform="translate(185.682949, 29.413368)"><g><path d="M 4.511719 -1.757812 C 3.78125 -1.757812 3.375 -2.160156 3.375 -2.863281 L 3.375 -5.699219 L 5.363281 -5.699219 L 5.363281 -7.292969 L 3.351562 -7.292969 L 3.351562 -9.183594 L 2.972656 -9.183594 L 0.09375 -6.132812 L 0.09375 -5.699219 L 1.40625 -5.699219 L 1.40625 -2.59375 C 1.40625 -0.984375 2.390625 0 4 0 L 5.402344 0 L 5.402344 -1.757812 Z M 4.511719 -1.757812 "/></g></g></g><g fill="#24285b" fill-opacity="1"><g transform="translate(194.354865, 29.413368)"><g><path d="M 0.945312 -8.265625 L 2.902344 -8.265625 L 2.902344 -10.089844 L 0.945312 -10.089844 Z M 0.945312 0 L 2.917969 0 L 2.917969 -7.292969 L 0.945312 -7.292969 Z M 0.945312 0 "/></g></g></g><g fill="#24285b" fill-opacity="1"><g transform="translate(201.082128, 29.413368)"><g><path d="M 4.402344 0.214844 C 6.660156 0.214844 8.347656 -1.445312 8.347656 -3.648438 C 8.347656 -5.847656 6.660156 -7.496094 4.402344 -7.496094 C 2.148438 -7.496094 0.460938 -5.847656 0.460938 -3.648438 C 0.460938 -1.445312 2.148438 0.214844 4.402344 0.214844 Z M 4.402344 -1.648438 C 3.269531 -1.648438 2.457031 -2.457031 2.457031 -3.648438 C 2.457031 -4.824219 3.269531 -5.644531 4.402344 -5.644531 C 5.539062 -5.644531 6.347656 -4.824219 6.347656 -3.648438 C 6.347656 -2.457031 5.539062 -1.648438 4.402344 -1.648438 Z M 4.402344 -1.648438 "/></g></g></g><g fill="#24285b" fill-opacity="1"><g transform="translate(212.765552, 29.413368)"><g><path d="M 5.09375 -7.457031 C 4.105469 -7.457031 3.226562 -7.039062 2.675781 -6.390625 L 2.296875 -7.292969 L 0.945312 -7.292969 L 0.945312 0 L 2.917969 0 L 2.917969 -3.824219 C 2.917969 -4.996094 3.539062 -5.726562 4.550781 -5.726562 C 5.402344 -5.726562 5.820312 -5.199219 5.820312 -4.09375 L 5.820312 0 L 7.792969 0 L 7.792969 -4.417969 C 7.792969 -6.269531 6.753906 -7.457031 5.09375 -7.457031 Z M 5.09375 -7.457031 "/></g></g></g><g fill="#24285b" fill-opacity="1"><g transform="translate(77.519316, 40.651807)"><g><path d="M 0.75 -5.265625 L 4.515625 -5.265625 L 4.515625 -4.515625 L 3.015625 -4.515625 L 3.015625 0 L 2.25 0 L 2.25 -4.515625 L 0.75 -4.515625 Z M 0.75 -5.265625 "/></g></g></g><g fill="#24285b" fill-opacity="1"><g transform="translate(89.252337, 40.651807)"><g><path d="M 0.75 -5.265625 L 4.515625 -5.265625 L 4.515625 -4.515625 L 1.5 -4.515625 L 1.5 -3.015625 L 3.765625 -3.015625 L 3.765625 -2.25 L 1.5 -2.25 L 1.5 -0.75 L 4.515625 -0.75 L 4.515625 0 L 0.75 0 Z M 0.75 -5.265625 "/></g></g></g><g fill="#24285b" fill-opacity="1"><g transform="translate(100.985357, 40.651807)"><g><path d="M 0.75 -5.265625 L 4.515625 -5.265625 L 4.515625 -4.515625 L 1.5 -4.515625 L 1.5 -0.75 L 4.515625 -0.75 L 4.515625 0 L 0.75 0 Z M 0.75 -5.265625 "/></g></g></g><g fill="#24285b" fill-opacity="1"><g transform="translate(112.718378, 40.651807)"><g><path d="M 0.75 -5.265625 L 1.5 -5.265625 L 1.5 -3.015625 L 3.765625 -3.015625 L 3.765625 -5.265625 L 4.515625 -5.265625 L 4.515625 0 L 3.765625 0 L 3.765625 -2.25 L 1.5 -2.25 L 1.5 0 L 0.75 0 Z M 0.75 -5.265625 "/></g></g></g><g fill="#24285b" fill-opacity="1"><g transform="translate(124.451397, 40.651807)"><g><path d="M 0.75 -5.265625 L 3.546875 -5.265625 L 4.515625 -4.3125 L 4.515625 0 L 3.765625 0 L 3.765625 -3.96875 L 3.21875 -4.515625 L 1.5 -4.515625 L 1.5 0 L 0.75 0 Z M 0.75 -5.265625 "/></g></g></g><g fill="#24285b" fill-opacity="1"><g transform="translate(136.184416, 40.651807)"><g><path d="M 0.75 -5.265625 L 4.515625 -5.265625 L 4.515625 0 L 0.75 0 Z M 1.5 -4.515625 L 1.5 -0.75 L 3.765625 -0.75 L 3.765625 -4.515625 Z M 1.5 -4.515625 "/></g></g></g><g fill="#24285b" fill-opacity="1"><g transform="translate(147.917435, 40.651807)"><g><path d="M 0.75 -5.265625 L 1.5 -5.265625 L 1.5 -0.75 L 4.515625 -0.75 L 4.515625 0 L 0.75 0 Z M 0.75 -5.265625 "/></g></g></g><g fill="#24285b" fill-opacity="1"><g transform="translate(159.650454, 40.651807)"><g><path d="M 0.75 -5.265625 L 4.515625 -5.265625 L 4.515625 0 L 0.75 0 Z M 1.5 -4.515625 L 1.5 -0.75 L 3.765625 -0.75 L 3.765625 -4.515625 Z M 1.5 -4.515625 "/></g></g></g><g fill="#24285b" fill-opacity="1"><g transform="translate(171.383472, 40.651807)"><g><path d="M 0.75 -5.265625 L 4.515625 -5.265625 L 4.515625 -4.515625 L 1.5 -4.515625 L 1.5 -0.75 L 3.765625 -0.75 L 3.765625 -2.25 L 3.015625 -2.25 L 3.015625 -3.015625 L 4.515625 -3.015625 L 4.515625 0 L 0.75 0 Z M 0.75 -5.265625 "/></g></g></g><g fill="#24285b" fill-opacity="1"><g transform="translate(183.116497, 40.651807)"><g><path d="M 0.75 -5.265625 L 1.5 -5.265625 L 1.5 -3.546875 L 2.046875 -3.015625 L 3.21875 -3.015625 L 3.765625 -3.546875 L 3.765625 -5.265625 L 4.515625 -5.265625 L 4.515625 -3.21875 L 3.546875 -2.25 L 3.015625 -2.25 L 3.015625 0 L 2.25 0 L 2.25 -2.25 L 1.71875 -2.25 L 0.75 -3.21875 Z M 0.75 -5.265625 "/></g></g></g><g fill="#24285b" fill-opacity="1"><g transform="translate(55.558381, 52.645406)"><g><path d="M 0.75 -5.265625 L 1.5 -5.265625 L 1.5 -1.296875 L 2.046875 -0.75 L 2.25 -0.96875 L 2.25 -5.265625 L 3.015625 -5.265625 L 3.015625 -0.96875 L 3.21875 -0.75 L 3.765625 -1.296875 L 3.765625 -5.265625 L 4.515625 -5.265625 L 4.515625 -0.96875 L 3.546875 0 L 2.796875 0 L 2.640625 -0.171875 L 2.46875 0 L 1.71875 0 L 0.75 -0.96875 Z M 0.75 -5.265625 "/></g></g></g><g fill="#24285b" fill-opacity="1"><g transform="translate(67.291401, 52.645406)"><g><path d="M 0.75 -5.265625 L 3.015625 -5.265625 L 3.015625 -4.515625 L 2.25 -4.515625 L 2.25 -0.75 L 3.015625 -0.75 L 3.015625 0 L 0.75 0 L 0.75 -0.75 L 1.5 -0.75 L 1.5 -4.515625 L 0.75 -4.515625 Z M 0.75 -5.265625 "/></g></g></g><g fill="#24285b" fill-opacity="1"><g transform="translate(77.52131, 52.645406)"><g><path d="M 0.75 -5.265625 L 4.515625 -5.265625 L 4.515625 -4.515625 L 3.015625 -4.515625 L 3.015625 0 L 2.25 0 L 2.25 -4.515625 L 0.75 -4.515625 Z M 0.75 -5.265625 "/></g></g></g><g fill="#24285b" fill-opacity="1"><g transform="translate(89.254331, 52.645406)"><g><path d="M 0.75 -5.265625 L 1.5 -5.265625 L 1.5 -3.015625 L 3.765625 -3.015625 L 3.765625 -5.265625 L 4.515625 -5.265625 L 4.515625 0 L 3.765625 0 L 3.765625 -2.25 L 1.5 -2.25 L 1.5 0 L 0.75 0 Z M 0.75 -5.265625 "/></g></g></g><g fill="#24285b" fill-opacity="1"><g transform="translate(100.98735, 52.645406)"><g/></g></g><g fill="#24285b" fill-opacity="1"><g transform="translate(111.968813, 52.645406)"><g><path d="M 1.5 -4.515625 L 1.5 -3.015625 L 3.765625 -3.015625 L 3.765625 -4.515625 Z M 0.75 -5.265625 L 4.515625 -5.265625 L 4.515625 0 L 3.765625 0 L 3.765625 -2.25 L 1.5 -2.25 L 1.5 0 L 0.75 0 Z M 0.75 -5.265625 "/></g></g></g><g fill="#24285b" fill-opacity="1"><g transform="translate(123.701832, 52.645406)"><g/></g></g><g fill="#24285b" fill-opacity="1"><g transform="translate(134.683295, 52.645406)"><g><path d="M 0.75 -5.265625 L 4.515625 -5.265625 L 4.515625 -2.25 L 1.5 -2.25 L 1.5 0 L 0.75 0 Z M 1.5 -4.515625 L 1.5 -3.015625 L 3.765625 -3.015625 L 3.765625 -4.515625 Z M 1.5 -4.515625 "/></g></g></g><g fill="#24285b" fill-opacity="1"><g transform="translate(146.416313, 52.645406)"><g><path d="M 0.75 -5.265625 L 1.5 -5.265625 L 1.5 -1.296875 L 2.046875 -0.75 L 3.21875 -0.75 L 3.765625 -1.296875 L 3.765625 -5.265625 L 4.515625 -5.265625 L 4.515625 -0.96875 L 3.546875 0 L 1.71875 0 L 0.75 -0.96875 Z M 0.75 -5.265625 "/></g></g></g><g fill="#24285b" fill-opacity="1"><g transform="translate(158.149338, 52.645406)"><g><path d="M 0.75 -5.265625 L 4.140625 -5.265625 L 4.515625 -4.890625 L 4.515625 -3.25 L 3.90625 -2.640625 L 4.515625 -2.015625 L 4.515625 0 L 3.765625 0 L 3.765625 -1.75 L 3.25 -2.25 L 1.5 -2.25 L 1.5 0 L 0.75 0 Z M 1.5 -4.515625 L 1.5 -3.015625 L 3.21875 -3.015625 L 3.765625 -3.546875 L 3.765625 -4.515625 Z M 1.5 -4.515625 "/></g></g></g><g fill="#24285b" fill-opacity="1"><g transform="translate(169.882357, 52.645406)"><g><path d="M 0.75 -5.265625 L 4.515625 -5.265625 L 4.515625 -2.25 L 1.5 -2.25 L 1.5 0 L 0.75 0 Z M 1.5 -4.515625 L 1.5 -3.015625 L 3.765625 -3.015625 L 3.765625 -4.515625 Z M 1.5 -4.515625 "/></g></g></g><g fill="#24285b" fill-opacity="1"><g transform="translate(181.615375, 52.645406)"><g><path d="M 0.75 -5.265625 L 4.515625 -5.265625 L 4.515625 0 L 0.75 0 Z M 1.5 -4.515625 L 1.5 -0.75 L 3.765625 -0.75 L 3.765625 -4.515625 Z M 1.5 -4.515625 "/></g></g></g><g fill="#24285b" fill-opacity="1"><g transform="translate(193.348394, 52.645406)"><g><path d="M 0.75 -5.265625 L 4.515625 -5.265625 L 4.515625 -4.515625 L 1.5 -4.515625 L 1.5 -3.015625 L 4.515625 -3.015625 L 4.515625 0 L 0.75 0 L 0.75 -0.75 L 3.765625 -0.75 L 3.765625 -2.25 L 0.75 -2.25 Z M 0.75 -5.265625 "/></g></g></g><g fill="#24285b" fill-opacity="1"><g transform="translate(205.081413, 52.645406)"><g><path d="M 0.75 -5.265625 L 4.515625 -5.265625 L 4.515625 -4.515625 L 1.5 -4.515625 L 1.5 -3.015625 L 3.765625 -3.015625 L 3.765625 -2.25 L 1.5 -2.25 L 1.5 -0.75 L 4.515625 -0.75 L 4.515625 0 L 0.75 0 Z M 0.75 -5.265625 "/></g></g></g><path stroke-linecap="butt" transform="matrix(0.7496, 0.000000000000000094, -0.000000000000000094, 0.7496, 47.936151, 56.989645)" fill="none" stroke-linejoin="miter" d="M 0.00180005 0.498448 L 226.049462 0.498448 " stroke="#ffd200" stroke-width="1" stroke-opacity="1" stroke-miterlimit="4"/></svg>